<?xml version="1.0" encoding="utf-8"?>
<!-- Generator: Adobe Illustrator 19.2.1, SVG Export Plug-In . SVG Version: 6.00 Build 0)  -->
<svg version="1.1" id="layer" xmlns="http://www.w3.org/2000/svg" xmlns:xlink="http://www.w3.org/1999/xlink" x="0px" y="0px"
	 viewBox="0 0 652 652" style="enable-background:new 0 0 652 652;" xml:space="preserve">
<style type="text/css">
	.st0{fill:#4B5C6D;}
	.st1{fill-rule:evenodd;clip-rule:evenodd;fill:#4D5D6F;}
	.st2{fill:#FFFFFF;}
	.st3{fill-rule:evenodd;clip-rule:evenodd;fill:#62B230;}
	.st4{fill-rule:evenodd;clip-rule:evenodd;fill:#86C026;}
</style>
<path class="st0" d="M262.2,379.3l-8-21H204l-8,21h-21.8l43-109.4h23.9l43,109.4H262.2z M229.1,289.3l-19.7,52.1h39.3L229.1,289.3z"
	/>
<path class="st0" d="M292,360.9v-45.7h-13.1v-15.1H292v-21.6h17.2v21.6h16.1v15.1h-16.1v41.5c0,5.4,2.6,9.3,7.5,9.3
	c3.3,0,6.4-1.3,7.7-2.8l4.1,13c-3.1,3-8.2,5.1-16.2,5.1C299.1,381.3,292,374.1,292,360.9"/>
<path class="st0" d="M337.3,360.9v-45.7h-13.1v-15.1h13.1v-21.6h17.2v21.6h16.1v15.1h-16.1v41.5c0,5.4,2.6,9.3,7.5,9.3
	c3.3,0,6.4-1.3,7.7-2.8l4.1,13c-3.1,3-8.2,5.1-16.2,5.1C344.4,381.3,337.3,374.1,337.3,360.9"/>
<path class="st0" d="M374.2,339.6c0-23,16.7-41.5,40.2-41.5c23.8,0,39,18.2,39,43.1v4.1h-61.2c1.3,12,10.3,21.8,25.2,21.8
	c7.7,0,16.9-3.1,22.5-8.7l7.9,11.3c-7.9,7.5-19.5,11.5-32.1,11.5C391.9,381.3,374.2,364.7,374.2,339.6 M414.4,312.2
	c-14.8,0-21.5,11.3-22.3,21h44.6C436.4,323.9,429.9,312.2,414.4,312.2"/>
<path class="st0" d="M518.7,379.3v-49.5c0-12.3-6.2-16.4-15.9-16.4c-8.8,0-16.4,5.3-20.3,10.7v55.3h-17.2v-79.2h17.2v10.8
	c5.3-6.2,15.4-12.8,27.9-12.8c17.1,0,25.6,9.2,25.6,25.4v55.8H518.7z"/>
<path class="st0" d="M608.5,379.3v-10.8c-6.1,7.9-15.3,12.8-25.4,12.8c-20.3,0-35.3-15.4-35.3-41.5c0-25.6,14.8-41.7,35.3-41.7
	c9.8,0,19,4.6,25.4,12.9v-41.2h17.2v109.4H608.5z M608.5,355.5V324c-3.9-5.9-12.3-10.6-20.5-10.6c-13.6,0-22.3,11-22.3,26.4
	c0,15.3,8.7,26.2,22.3,26.2C596.2,366,604.6,361.4,608.5,355.5"/>
<path class="st1" d="M86.3,331.6c-0.1-0.1-0.2-0.1-0.2-0.2c0,0,0-0.1,0-0.2C86.2,331.4,86.2,331.5,86.3,331.6L86.3,331.6z"/>
<path class="st1" d="M86.3,331.7c0.2,0,0.4,0,0.5,0c0,0.1-0.1,0.3-0.1,0.4C86.6,331.9,86.5,331.8,86.3,331.7L86.3,331.7z"/>
<path class="st2" d="M76.6,390.6c5,1.2,11,2,16.4,2c3.6,0,7.6-0.3,11-0.8l53-85.8c-3-10.2-9-19.9-15.8-26.8l-31.4,41.1l-21.3,44.4
	l-29.7-42.7l-20.5,22.9L76.6,390.6z"/>
<path class="st3" d="M159.5,333.9c-0.1,0.1-0.1,0.2-0.1,0.3c0,0.8-0.2,1.6-0.3,2.4c-0.6,3.7-1.5,7.3-2.7,10.8
	c-1.5,4.4-3.5,8.5-5.8,12.5c-2.2,3.8-4.9,7.3-7.8,10.5c-2.6,2.8-5.3,5.4-8.3,7.8c-4,3.2-8.3,5.8-13,8c-4.1,1.9-8.4,3.4-12.8,4.5
	c-1.5,0.4-3.1,0.6-4.6,1c-0.1,0-0.2,0-0.3,0c-0.3,0-0.3,0-0.2-0.3c0.6-1.4,1.2-2.8,1.8-4.2c1.2-2.7,2.4-5.4,3.7-8.1
	c0.9-1.9,1.8-3.8,2.7-5.7c0.9-1.9,1.9-3.8,2.9-5.8c1.5-3,3.1-5.9,4.7-8.8c2.3-4.2,4.7-8.3,7.1-12.4c1.7-2.8,3.4-5.6,5.2-8.3
	c1.2-1.9,2.5-3.8,3.8-5.7c2.6-3.8,5.3-7.5,8.1-11.2c2.4-3.1,4.9-6.2,7.5-9.2c1.1-1.3,2.3-2.6,3.5-3.9c0.7-0.7,1.4-1.5,2-2.2
	c0.1-0.1,0.2-0.2,0.3-0.3c0.1,0,0.1,0.1,0.2,0.2c0.4,1.4,0.8,2.8,1.2,4.2c0.3,1.4,0.6,2.8,0.9,4.2c0.1,0.9,0.3,1.7,0.4,2.6
	c0.1,0.6,0.1,1.2,0.2,1.8c0.1,0.6,0.1,1.2,0.2,1.8c0.1,0.6,0.1,1.1,0.1,1.7c0,0.1,0.1,0.1,0.1,0.2v6.7c-0.1,0.1-0.3,2.9-0.3,3.4
	C159.6,332.9,159.5,333.9,159.5,333.9"/>
<path class="st4" d="M77,390.6c-0.8-0.1-1.7-0.4-2.5-0.6c-9.2-2.6-17.5-7-24.9-13.2c-10-8.4-16.9-18.9-20.9-31.4
	c-1.1-3.5-1.9-7.1-2.4-10.7c-0.3-2.3-0.5-4.6-0.6-6.9c-0.1-2.4,0-4.9,0.1-7.3c1.1-13.4,5.7-25.3,13.9-35.9
	c6.6-8.5,14.8-15,24.5-19.6c5.1-2.4,10.3-4.1,15.8-5.1c2.8-0.5,5.6-0.9,8.5-1.1c2.7-0.2,5.3-0.2,8-0.1c9.4,0.5,18.3,2.9,26.7,7.2
	c6.6,3.4,12.5,7.7,17.7,13c0.4,0.4,0.4,0.3,0.1,0.7c-0.7,1-1.4,2-2.1,3c-1.4,2-2.8,4-4.2,6.1c-2.3,3.3-4.6,6.7-6.9,10.1
	c-2.1,3.2-4.2,6.4-6.3,9.5c-2.8,4.3-5.4,8.6-8.1,12.9c-2.9,4.7-5.7,9.5-8.4,14.3c-1.4,2.6-2.9,5.1-4.2,7.7c-1.6,3-3.2,6-4.6,9
	c-1.8,3.7-3.5,7.4-5.1,11.2c-0.7,1.6-1.3,3.2-1.9,4.8c0,0.1-0.1,0.2-0.1,0.2c-0.2,0-0.2-0.1-0.2-0.2c-2.3-4.1-4.9-8-7.5-11.9
	c-1.9-2.9-3.9-5.7-6-8.6c-2.2-3-4.4-6.1-6.6-9c-3.2-4.3-6.5-8.6-9.9-12.8c-0.4-0.5-0.4-0.5-0.8,0c-1.5,1.7-3.1,3.5-4.6,5.2
	c-1.5,1.7-3,3.4-4.5,5.1c-1.6,1.8-3.2,3.6-4.8,5.5c-1,1.2-2,2.3-3.1,3.5c-0.3,0.3-0.3,0.3,0.1,0.6c1.7,1.4,3.3,2.9,4.9,4.4
	c1.7,1.6,3.4,3.3,5.1,5c2.6,2.7,5.2,5.5,7.6,8.4c2.2,2.6,4.3,5.3,6.4,8.1c2.8,3.8,5.5,7.7,8,11.7c1.4,2.3,2.7,4.6,4,6.9
	C77,390.4,77.1,390.5,77,390.6L77,390.6"/>
</svg>
